<svg width="157" height="39" viewBox="0 0 157 39" fill="none" xmlns="http://www.w3.org/2000/svg">
<path d="M87.5188 23.4696C86.8976 23.4696 86.3584 23.9382 86.3584 24.6176C86.3584 25.297 86.8976 25.7773 87.5188 25.7773C88.14 25.7773 88.6675 25.2853 88.6675 24.6176C88.6675 23.9499 88.1283 23.4696 87.5188 23.4696Z" fill="#06345B"/>
<path d="M60.1732 19.8382C59.7981 20.6582 59.4582 21.9936 59.4582 21.9936C59.4582 21.9936 59.0831 20.6347 58.7315 19.8382L56.0004 13.3369H53.9844L59.2941 25.5664H59.5285L64.6975 13.3369H62.869L60.1732 19.8382Z" fill="#06345B"/>
<path d="M67.1006 25.4492H68.9877V20.9979H74.1099V19.3228H68.9877V15.0003H74.6256V13.3486H67.1006V25.4492Z" fill="#06345B"/>
<path d="M81.0479 18.456L80.2626 18.1045C79.0319 17.5657 78.5162 17.1674 78.5162 16.2537C78.5162 15.4337 79.1139 14.848 80.0868 14.848C81.0597 14.848 81.5637 15.2229 82.0325 16.0194L83.5094 15.1174C82.7827 13.8172 81.6926 13.2198 80.0868 13.2198C78.0708 13.2198 76.6877 14.4966 76.6877 16.3006C76.6877 18.1045 77.7543 19.0534 79.5242 19.8382L80.3212 20.1897C81.634 20.7754 82.349 21.2439 82.349 22.2865C82.349 23.329 81.4699 23.9499 80.2392 23.9499C78.7623 23.9499 78.0356 23.2002 77.4613 22.2513L75.9141 23.1065C76.5939 24.477 77.977 25.6133 80.2743 25.6133C82.5717 25.6133 84.2127 24.3833 84.2127 22.263C84.2127 20.3185 83.1109 19.3697 81.0479 18.456Z" fill="#06345B"/>
<path d="M95.97 20.9979H99.2285V23.1416C98.5487 23.5985 97.4821 23.9265 96.2279 23.9265C93.4851 23.9265 91.7035 21.9819 91.7035 19.4048C91.7035 16.8277 93.4617 14.9066 95.9935 14.9066C97.4352 14.9066 98.326 15.3634 99.0293 16.1014L100.295 14.8363C99.3106 13.7352 97.8571 13.2198 96.0052 13.2198C92.4068 13.2198 89.793 15.7969 89.793 19.4165C89.793 23.0362 92.4654 25.625 96.2396 25.625C98.5018 25.625 100.178 24.7816 100.963 24.0787V19.3579H95.9817V21.0096L95.97 20.9979Z" fill="#06345B"/>
<path d="M105.381 13.3486H103.494V25.4492H110.972V23.7976H105.381V13.3486Z" fill="#06345B"/>
<path d="M117.677 13.1846C114.208 13.1846 111.418 15.7851 111.418 19.393C111.418 23.001 114.196 25.6015 117.677 25.6015C121.158 25.6015 123.913 23.001 123.913 19.393C123.913 15.7851 121.135 13.1846 117.677 13.1846ZM117.677 23.9147C115.145 23.9147 113.352 21.9702 113.352 19.393C113.352 16.8159 115.157 14.8714 117.677 14.8714C120.197 14.8714 121.99 16.8159 121.99 19.393C121.99 21.9702 120.209 23.9147 117.677 23.9147Z" fill="#06345B"/>
<path d="M132.34 18.7253C133.395 18.3739 133.981 17.5539 133.981 16.3942C133.981 14.7191 132.821 13.3486 130.559 13.3486H126.163V25.4492H130.875C133.43 25.4492 134.813 23.8796 134.813 21.8062C134.813 20.2599 133.958 19.1002 132.34 18.7253ZM128.05 15.0003H130.441C131.613 15.0003 132.141 15.6211 132.141 16.5348C132.141 17.4485 131.602 18.0694 130.476 18.0694H128.05V15.012V15.0003ZM130.781 23.7976H128.05V19.6625H130.687C132.188 19.6625 132.926 20.5176 132.926 21.7242C132.926 22.9307 132.235 23.7858 130.77 23.7858L130.781 23.7976Z" fill="#06345B"/>
<path d="M141.541 13.2198L136.36 25.4493H138.177L139.291 22.6965H143.967L145.093 25.4493H147.05L141.752 13.2198H141.541ZM143.299 21.0214H139.947L141.025 18.3857C141.33 17.6711 141.623 16.5934 141.623 16.5934C141.623 16.5934 141.928 17.6828 142.221 18.3857L143.311 21.0214H143.299Z" fill="#06345B"/>
<path d="M151 23.7976V13.3486H149.113V25.4492H156.591V23.7976H151Z" fill="#06345B"/>
<path d="M0.883665 19.4752C0.883665 8.83677 9.53594 0.189573 20.181 0.189573C30.8176 0.189573 39.4783 8.83682 39.4783 19.4752C39.4783 30.1136 30.826 38.7608 20.181 38.7608C9.53594 38.7608 0.883665 30.1136 0.883665 19.4752Z" fill="white" stroke="#06345B" stroke-width="0.316157"/>
<path d="M30.0653 17.6283C30.0399 16.5862 29.0226 15.3493 26.8948 15.5695C25.513 15.7136 24.0125 16.4168 22.5629 17.1115L22.7918 16.1711L23.3004 13.587C23.5971 12.079 23.8769 11.4605 24.2584 11.4605C24.4618 11.4605 24.6144 11.6046 24.7416 11.8672C24.8772 12.1552 25.0637 12.4772 25.53 12.4772C25.9962 12.4772 26.2844 12.0875 26.2844 11.5368C26.2844 10.8421 25.691 10.2575 24.9874 10.2575C23.2326 10.2575 21.8847 12.2654 21.0963 16.0694L20.6979 17.9756C20.079 18.3061 19.6552 18.4162 19.0787 18.4586C18.8329 18.4755 18.4684 18.3993 18.2564 18.3399C18.2734 18.1959 18.4005 17.874 18.409 17.4249C18.4429 16.332 17.7817 16.1287 17.3748 16.1372C16.8153 16.1456 16.0862 16.3829 16.1032 17.5859C16.1117 18.1705 16.5186 18.7042 17.1544 19.077C17.1205 19.1787 17.0922 19.2606 17.0696 19.3227C16.5016 20.6529 14.0347 25.5667 13.6702 25.033C11.9917 22.6353 13.7974 16.815 13.7974 16.815C13.577 16.7133 12.1867 15.9931 10.6353 16.0186C9.00769 16.044 8.11758 17.4419 8.00737 18.7551C7.93108 19.5854 8.1854 20.0429 8.75337 20.1106C9.24506 20.1699 9.63501 19.7802 9.68588 19.1956C9.72826 18.7043 9.47394 18.484 9.27897 18.323C9.12638 18.1959 9.05008 18.1281 9.05856 17.9841C9.08399 17.6961 9.36374 17.4504 9.64349 17.4843C9.68588 17.4843 9.79608 17.5181 9.9402 17.5605C10.4149 17.6876 11.5424 18.1451 11.9832 17.7045C10.4234 20.9579 10.949 26.5749 13.4922 26.2191C15.0011 26.0157 16.5864 22.4574 18.0021 19.3058C18.0275 19.2465 18.4599 19.5938 20.274 19.4667C20.3164 19.4667 20.3588 19.4583 20.3927 19.4498L19.0872 25.787C18.8498 26.8884 18.4768 28.3625 17.9089 28.3625C17.6969 28.3625 17.5952 28.1931 17.4426 27.905C17.2815 27.6085 17.0781 27.2357 16.6034 27.2357C16.1286 27.2357 15.7726 27.6509 15.7726 28.1931C15.7726 29.0403 16.5186 29.4978 17.2222 29.4978C19.0702 29.4978 20.3927 27.4645 21.2659 23.2877L22.156 19.0347C23.1902 18.6958 24.199 18.0519 24.9535 17.6452C24.8348 17.9672 24.7246 18.484 24.7246 18.8229C24.7246 19.8649 25.3435 20.8392 25.9453 21.7797C26.437 22.5506 26.9118 23.2877 26.9118 23.9231C26.9118 24.4399 26.3777 24.9483 25.8436 24.9483C25.3689 24.9483 25.1993 24.5585 25.0128 24.1434C24.8348 23.7367 24.6314 23.2708 24.0973 23.2708C23.6565 23.2708 23.3089 23.7283 23.3089 24.3128C23.3089 25.2617 24.2075 25.9819 25.3943 25.9819C27.0304 25.9819 28.2257 24.7619 28.2257 23.0844C28.2257 21.8305 27.4967 20.6952 26.8609 19.687C26.4116 18.9923 26.0301 18.3993 26.0132 17.9333C25.9792 17.0437 27.2593 16.4591 28.0223 16.493C28.2851 16.493 28.5394 16.5438 28.7768 16.6455C28.3783 16.8488 28.1833 17.1793 28.2003 17.6961C28.2173 18.3399 28.7174 18.6449 29.1582 18.6449C29.7432 18.6449 30.0992 18.1027 30.0907 17.5859" fill="#00305D"/>
<path d="M31.1334 23.7282C31.1334 23.0928 30.7519 22.559 30.1585 22.559C29.599 22.559 29.1836 23.0589 29.1836 23.7282C29.1836 24.3975 29.6498 24.8211 30.1585 24.8211C30.7519 24.8211 31.1334 24.3636 31.1334 23.7282Z" fill="#00305D"/>
</svg>
